# xmcd
#
# Track frame offsets:
#	150
#	8255
#	16545
#	27627
#	36507
#	47870
#	61140
#	74600
#	86555
#	97445
#	108172
#	121047
#	131950
#	141585
#	153692
#	165080
#	176017
#	186140
#	196500
#	206875
#	218625
#	230085
#	241867
#	253142
#	265885
#	276237
#	284715
#	293165
#	303002
#	313140
#
# Disc length: 4364 seconds
#
# Revision: 0
# Processed by: cddbd v1.5.2PL0 Copyright (c) Steve Scherf et al.
# Submitted via: dBpowerAMP V4.0
#
DISCID=c0110a1e
DTITLE=Various Artist - The Greatest Country Fiddlers
DYEAR=1991
DGENRE=Instrumental
TTITLE0=Trambulianka - Al Cherny
TTITLE1=Laventines Barrel - Al Cherny
TTITLE2=Knights Of The Round Table - Al Cherny
TTITLE3=Boil Them Cabage Down - Al Cherny
TTITLE4=Kansas City Rairoad Blues - Al Cherny
TTITLE5=Reel Du Mardi-Gras - Ti-Blanc Richard
TTITLE6=Reel De Sherbrooke - Ti-Blanc Richard
TTITLE7=Mocking Bird - Ned Landry
TTITLE8=Saturdaynight Breakdown - Ned Landry
TTITLE9=The Irish Washerwoman - Ned Landry
TTITLE10=Dundee Hornpipe - Ned Landry
TTITLE11=Farmer's Jamboree - King Ganam
TTITLE12=Black Mountain Rag - King Ganam
TTITLE13=To The Ladies - King Ganam
TTITLE14=Fireman's Reel - King Ganam
TTITLE15=The Old Man and The Old Woman - Ned Landry
TTITLE16=Life In The Finland Woods
TTITLE17=Oh! Dem Golden Slippers
TTITLE18=St Ann's Reel - Ned Landry
TTITLE19=Valse Des Fleurs - Ti-Blanc Richard
TTITLE20=Reel De-La Georgie - Ti-Blanc Richard
TTITLE21=Angus Campbell - King Ganam
TTITLE22=Red River Jig - King Ganam
TTITLE23=Oompah Rag - King Ganam
TTITLE24=Joys Of Quebec - Al Cherny
TTITLE25=Spanish Two Step - Al Cherny
TTITLE26=Hitch Hiker Blues - Al Cherny
TTITLE27=My Little Home In West Virginia - Al Cherny
TTITLE28=Pointe-Au-Pic Reel - Al Cherny
TTITLE29=Reel De La Maison Blanche - Ti-Blanc Richard
EXTD=
EXTT0=
EXTT1=
EXTT2=
EXTT3=
EXTT4=
EXTT5=
EXTT6=
EXTT7=
EXTT8=
EXTT9=
EXTT10=
EXTT11=
EXTT12=
EXTT13=
EXTT14=
EXTT15=
EXTT16=
EXTT17=
EXTT18=
EXTT19=
EXTT20=
EXTT21=
EXTT22=
EXTT23=
EXTT24=
EXTT25=
EXTT26=
EXTT27=
EXTT28=
EXTT29=
PLAYORDER=
